<?xml version="1.0" standalone="no"?>
<!DOCTYPE svg PUBLIC "-//W3C//DTD SVG 20010904//EN"
 "http://www.w3.org/TR/2001/REC-SVG-20010904/DTD/svg10.dtd">
<svg version="1.0" xmlns="http://www.w3.org/2000/svg"
 width="1337.000000pt" height="1337.000000pt" viewBox="0 0 1337.000000 1337.000000"
 preserveAspectRatio="xMidYMid meet">
<metadata>
Created by potrace 1.14, written by Peter Selinger 2001-2017
</metadata>
<g transform="translate(0.000000,1337.000000) scale(0.100000,-0.100000)"
fill="#000000" stroke="none">
<path d="M5041 13349 c-365 -39 -722 -182 -1021 -409 -313 -238 -564 -590
-689 -965 -71 -212 -95 -349 -111 -635 -11 -200 -24 -259 -85 -385 -100 -208
-292 -367 -525 -436 -72 -22 -95 -23 -665 -29 -541 -7 -598 -9 -686 -28 -610
-130 -1068 -588 -1195 -1197 -18 -87 -19 -209 -19 -4025 l0 -3935 23 -104 c63
-278 192 -525 380 -723 260 -273 592 -434 963 -468 90 -8 1174 -10 3909 -8
3617 3 3789 4 3880 21 320 62 589 205 821 436 218 218 341 439 417 751 25 105
25 107 32 700 6 570 8 598 28 673 54 191 152 337 302 451 83 63 139 93 242
127 84 28 113 33 309 45 248 15 410 43 589 103 682 228 1198 810 1345 1516
206 993 -339 1985 -1285 2338 -204 76 -392 111 -675 126 -159 8 -191 13 -275
40 -219 71 -386 213 -486 416 -89 180 -87 162 -94 900 -7 608 -8 655 -28 735
-68 282 -187 496 -386 696 -201 200 -426 324 -704 385 -92 21 -130 22 -737 29
-623 6 -642 7 -715 29 -282 83 -487 284 -575 561 -22 71 -28 115 -36 260 -5
96 -14 211 -20 255 -59 446 -281 884 -605 1196 -431 415 -1028 620 -1623 558z
m530 -438 c660 -136 1168 -665 1279 -1331 6 -36 15 -146 19 -245 5 -99 17
-216 26 -260 51 -249 159 -450 340 -631 145 -146 305 -246 490 -308 176 -58
179 -58 870 -65 623 -7 642 -8 720 -30 365 -103 630 -382 722 -761 13 -54 17
-176 22 -720 l7 -655 27 -95 c68 -246 182 -439 358 -604 169 -159 371 -263
604 -311 44 -9 161 -20 260 -25 99 -5 218 -16 265 -24 740 -132 1297 -773
1327 -1527 39 -939 -694 -1699 -1635 -1699 -222 0 -474 -80 -671 -213 -251
-169 -433 -432 -513 -741 -20 -76 -22 -117 -28 -671 -6 -483 -11 -604 -24
-665 -94 -436 -399 -758 -834 -878 l-97 -27 -3865 0 -3865 0 -100 27 c-401
111 -704 426 -798 832 l-22 91 -3 3785 c-2 2552 1 3823 8 3901 41 469 365 854
819 977 l96 26 590 7 c486 5 603 9 665 23 507 109 882 483 985 981 9 44 21
161 26 260 15 310 56 479 172 710 237 475 673 794 1204 880 125 20 425 13 554
-14z"/>
<path d="M2065 8893 c-155 -21 -300 -110 -388 -240 -53 -78 -82 -151 -97 -250
-7 -46 -10 -529 -8 -1493 3 -1357 4 -1428 22 -1480 17 -52 57 -133 93 -190 14
-24 13 -28 -20 -85 -20 -33 -46 -94 -59 -135 l-23 -75 0 -1435 c0 -1173 2
-1445 14 -1490 48 -198 199 -356 396 -417 57 -17 131 -18 1530 -18 l1470 0 72
23 c39 12 102 42 138 67 l67 45 44 -31 c64 -44 141 -75 227 -93 111 -23 2823
-24 2932 -1 167 35 317 149 389 295 70 144 67 60 64 1668 l-3 1447 -22 66
c-13 36 -41 94 -64 129 -33 51 -39 67 -30 80 6 8 27 47 46 85 69 138 66 60 63
1648 l-3 1432 -26 67 c-60 153 -153 259 -284 324 -138 68 -60 65 -1663 62
l-1447 -3 -72 -26 c-40 -15 -100 -45 -133 -68 l-61 -42 -45 31 c-24 17 -69 42
-98 56 -121 55 -90 54 -1599 53 -766 -1 -1405 -4 -1422 -6z m2858 -437 c21
-10 50 -35 65 -54 l27 -35 7 -261 c8 -324 21 -378 123 -514 93 -123 265 -212
411 -212 126 0 234 -41 318 -120 177 -167 177 -433 0 -600 -73 -69 -141 -99
-256 -111 -155 -17 -200 -27 -278 -66 -94 -46 -204 -151 -247 -238 -60 -119
-65 -147 -72 -435 -7 -293 -8 -300 -74 -341 -30 -18 -48 -19 -274 -17 l-242 3
-30 29 c-38 36 -48 68 -55 176 -29 429 -400 770 -838 770 -434 0 -805 -349
-834 -785 -7 -104 -25 -150 -68 -176 -28 -17 -54 -19 -280 -19 l-248 0 -39 39
-39 39 0 1423 c0 1392 1 1425 20 1456 20 34 47 52 95 64 17 4 647 6 1400 6
1322 -2 1371 -3 1408 -21z m3497 -1 c21 -12 44 -39 58 -65 l22 -45 -2 -1380
-3 -1380 -27 -47 c-19 -32 -41 -52 -71 -67 -40 -19 -61 -21 -263 -21 -300 0
-401 -25 -531 -128 -120 -95 -189 -237 -203 -417 -10 -123 -26 -176 -71 -247
-88 -137 -260 -215 -411 -188 -134 25 -253 115 -309 235 -24 51 -33 86 -40
172 -5 59 -17 133 -25 163 -50 178 -198 326 -384 386 -45 14 -104 18 -315 21
-294 5 -313 10 -354 83 -20 35 -21 52 -21 262 0 217 1 226 23 259 30 46 80 69
147 69 90 0 230 35 326 80 302 141 484 427 484 760 0 322 -175 607 -462 751
-100 50 -205 79 -327 88 -109 8 -139 21 -171 74 -18 29 -20 52 -20 265 0 246
3 264 49 306 11 10 35 22 53 26 18 5 659 7 1423 7 1376 -2 1390 -2 1425 -22z
m-4763 -2473 c109 -42 204 -136 245 -244 11 -29 23 -98 28 -157 11 -128 21
-165 68 -256 47 -91 147 -191 234 -234 121 -60 147 -64 447 -67 l273 -2 34
-33 c50 -48 56 -84 52 -323 -3 -202 -4 -212 -26 -244 -33 -46 -64 -58 -165
-66 -375 -30 -672 -274 -768 -632 -17 -61 -22 -108 -22 -204 0 -96 5 -143 22
-204 95 -356 402 -609 768 -633 101 -7 139 -22 170 -70 16 -24 18 -53 18 -274
0 -235 -1 -249 -21 -276 -11 -15 -36 -36 -55 -45 -32 -17 -121 -18 -1433 -18
-1393 0 -1400 0 -1442 21 -31 15 -48 32 -63 63 -21 42 -21 49 -21 1412 0 968
3 1381 11 1409 6 22 28 56 48 76 l36 37 265 4 c256 4 268 6 345 32 150 51 274
158 336 291 37 78 59 166 59 232 0 118 40 222 116 303 47 50 136 103 200 120
58 14 181 5 241 -18z m2415 -978 c47 -24 65 -66 73 -168 19 -242 125 -452 302
-601 79 -65 236 -145 338 -171 101 -26 303 -24 406 4 145 39 294 127 395 233
146 155 227 333 240 534 4 50 13 104 21 121 26 58 51 63 331 67 242 4 254 3
279 -16 56 -44 53 29 53 -1489 0 -1339 -1 -1405 -18 -1438 -12 -22 -35 -44
-63 -58 l-44 -22 -1390 2 c-1555 3 -1422 -3 -1482 75 l-28 36 -7 261 c-4 188
-10 276 -21 315 -51 175 -193 325 -362 381 -35 11 -110 25 -167 29 -56 5 -122
15 -145 23 -197 70 -320 271 -284 465 24 131 103 239 220 302 53 28 79 34 192
47 72 8 156 23 186 34 170 60 301 199 358 380 14 44 19 109 24 320 9 375 -9
356 331 352 182 -3 240 -7 262 -18z"/>
</g>
</svg>
