<?xml version="1.0" encoding="UTF-8"?>
<svg id="_Слой_1" data-name="Слой 1" xmlns="http://www.w3.org/2000/svg" viewBox="0 0 321.91 323.5">
  <defs>
    <style>
      .cls-1 {
        fill: none;
        stroke: #1d1d1b;
        stroke-miterlimit: 10;
        stroke-width: 10px;
      }
    </style>
  </defs>
  <path class="cls-1" d="m316.91,196.5c0,24.54-19.79,44.43-44.21,44.43h0c-13.78,0-24.95,11.17-24.95,24.95v20.26c0,17.87-14.49,32.35-32.35,32.35H36.59c-17.45,0-31.59-14.15-31.59-31.59V106.32c0-17.57,14.24-31.81,31.81-31.81h20.29c13.85,0,25.08-11.23,25.08-25.08h0c0-24.54,19.79-44.43,44.2-44.43s44.21,19.89,44.21,44.43h0c0,13.85,11.23,25.08,25.08,25.08h22.87c16.14,0,29.22,13.08,29.22,29.22v23.39c0,13.78,11.17,24.95,24.95,24.95h0c24.41,0,44.21,19.89,44.21,44.43Z"/>
  <path class="cls-1" d="m167.56,220.6c8.69.37,15.9-6.7,15.9-15.4h0c0-4.64,3.77-8.41,8.41-8.41h9.88c4.59,0,8.3,3.72,8.3,8.3v66.76c0,4.74-3.84,8.58-8.58,8.58h-65.56c-5.24,0-9.49-4.25-9.49-9.49v-8.69c0-4.64-3.76-8.41-8.41-8.41h0c-8.7,0-15.78-7.2-15.4-15.9.35-8.1,7.03-14.57,15.22-14.57h0c4.75,0,8.6-3.85,8.6-8.6v-9.09c0-4.92,3.99-8.9,8.9-8.9h9.09c4.75,0,8.6,3.85,8.6,8.6h0c0,8.19,6.46,14.87,14.57,15.22Z"/>
  <path class="cls-1" d="m102.12,237.94c-.37,8.69,6.7,15.9,15.4,15.9h0c4.64,0,8.41,3.77,8.41,8.41v9.88c0,4.59-3.72,8.3-8.3,8.3H50.87c-4.74,0-8.58-3.84-8.58-8.58v-65.56c0-5.24,4.25-9.49,9.49-9.49h8.69c4.64,0,8.41-3.76,8.41-8.41h0c0-8.7,7.2-15.78,15.9-15.4,8.1.35,14.57,7.03,14.57,15.22h0c0,4.75,3.85,8.6,8.6,8.6h9.09c4.92,0,8.9,3.99,8.9,8.9v9.09c0,4.75-3.85,8.6-8.6,8.6h0c-8.19,0-14.87,6.46-15.22,14.57Z"/>
  <path class="cls-1" d="m84.54,172.22c-8.69-.37-15.9,6.7-15.9,15.4h0c0,4.64-3.77,8.41-8.41,8.41h-9.88c-4.59,0-8.3-3.72-8.3-8.3v-66.76c0-4.74,3.84-8.58,8.58-8.58h65.56c5.24,0,9.49,4.25,9.49,9.49v8.69c0,4.64,3.76,8.41,8.41,8.41h0c8.7,0,15.78,7.2,15.4,15.9-.35,8.1-7.03,14.57-15.22,14.57h0c-4.75,0-8.6,3.85-8.6,8.6v9.09c0,4.92-3.99,8.9-8.9,8.9h-9.09c-4.75,0-8.6-3.85-8.6-8.6h0c0-8.19-6.46-14.87-14.57-15.22Z"/>
  <path class="cls-1" d="m149.98,154.87c.37-8.69-6.7-15.9-15.4-15.9h0c-4.64,0-8.41-3.77-8.41-8.41v-9.88c0-4.59,3.72-8.3,8.3-8.3h66.76c4.74,0,8.58,3.84,8.58,8.58v65.56c0,5.24-4.25,9.49-9.49,9.49h-8.69c-4.64,0-8.41,3.76-8.41,8.41h0c0,8.7-7.2,15.78-15.9,15.4-8.1-.35-14.57-7.03-14.57-15.22h0c0-4.75-3.85-8.6-8.6-8.6h-9.09c-4.92,0-8.9-3.99-8.9-8.9v-9.09c0-4.75,3.85-8.6,8.6-8.6h0c8.19,0,14.87-6.46,15.22-14.57Z"/>
</svg>