<?xml version="1.0" encoding="UTF-8"?>
<svg id="_Слой_1" data-name="Слой 1" xmlns="http://www.w3.org/2000/svg" viewBox="0 0 319.03 320.61">
  <defs>
    <style>
      .cls-1 {
        fill: #f16fde;
      }

      .cls-1, .cls-2, .cls-3, .cls-4, .cls-5 {
        stroke: #1d1d1b;
        stroke-miterlimit: 10;
        stroke-width: 10px;
      }

      .cls-2 {
        fill: #ffc2fc;
      }

      .cls-3 {
        fill: #fff1c5;
      }

      .cls-4 {
        fill: #ffef8f;
      }

      .cls-5 {
        fill: #b595fe;
      }
    </style>
  </defs>
  <path class="cls-3" d="m314.03,194.74c0,24.31-19.61,44.02-43.8,44.02h0c-13.65,0-24.72,11.07-24.72,24.72v20.08c0,17.7-14.35,32.06-32.06,32.06H36.3c-17.29,0-31.3-14.01-31.3-31.3V105.39c0-17.41,14.11-31.52,31.52-31.52h20.1c13.72,0,24.85-11.12,24.85-24.85h0c0-24.31,19.61-44.02,43.8-44.02s43.8,19.71,43.8,44.02h0c0,13.72,11.12,24.85,24.85,24.85h22.66c15.99,0,28.95,12.96,28.95,28.95v23.18c0,13.65,11.07,24.72,24.72,24.72h0c24.19,0,43.8,19.71,43.8,44.02Z"/>
  <path class="cls-2" d="m166.29,218.36c8.61.37,15.75-6.64,15.75-15.26h0c0-4.6,3.73-8.33,8.33-8.33h9.78c4.54,0,8.23,3.68,8.23,8.23v66.14c0,4.69-3.81,8.5-8.5,8.5h-64.96c-5.19,0-9.41-4.21-9.41-9.41v-8.61c0-4.6-3.73-8.33-8.33-8.33h0c-8.62,0-15.63-7.14-15.26-15.75.34-8.03,6.96-14.43,15.07-14.43h0c4.7,0,8.52-3.81,8.52-8.52v-9.01c0-4.87,3.95-8.82,8.82-8.82h9.01c4.7,0,8.52,3.81,8.52,8.52h0c0,8.11,6.4,14.73,14.43,15.08Z"/>
  <path class="cls-4" d="m101.46,235.54c-.37,8.61,6.64,15.75,15.26,15.75h0c4.6,0,8.33,3.73,8.33,8.33v9.78c0,4.54-3.68,8.23-8.23,8.23H50.69c-4.69,0-8.5-3.81-8.5-8.5v-64.96c0-5.19,4.21-9.41,9.41-9.41h8.61c4.6,0,8.33-3.73,8.33-8.33h0c0-8.62,7.14-15.63,15.75-15.26,8.03.34,14.43,6.96,14.43,15.07h0c0,4.7,3.81,8.52,8.52,8.52h9.01c4.87,0,8.82,3.95,8.82,8.82v9.01c0,4.7-3.81,8.52-8.52,8.52h0c-8.11,0-14.73,6.4-15.08,14.43Z"/>
  <path class="cls-5" d="m84.04,171.42c-8.61-.37-15.75,6.64-15.75,15.26h0c0,4.6-3.73,8.33-8.33,8.33h-9.78c-4.54,0-8.23-3.68-8.23-8.23v-66.14c0-4.69,3.81-8.5,8.5-8.5h64.96c5.19,0,9.41,4.21,9.41,9.41v8.61c0,4.6,3.73,8.33,8.33,8.33h0c8.62,0,15.63,7.14,15.26,15.75-.34,8.03-6.96,14.43-15.07,14.43h0c-4.7,0-8.52,3.81-8.52,8.52v9.01c0,4.87-3.95,8.82-8.82,8.82h-9.01c-4.7,0-8.52-3.81-8.52-8.52h0c0-8.11-6.4-14.73-14.43-15.08Z"/>
  <path class="cls-1" d="m148.88,154.24c.37-8.61-6.64-15.75-15.26-15.75h0c-4.6,0-8.33-3.73-8.33-8.33v-9.78c0-4.54,3.68-8.23,8.23-8.23h66.14c4.69,0,8.5,3.81,8.5,8.5v64.96c0,5.19-4.21,9.41-9.41,9.41h-8.61c-4.6,0-8.33,3.73-8.33,8.33h0c0,8.62-7.14,15.63-15.75,15.26-8.03-.34-14.43-6.96-14.43-15.07h0c0-4.7-3.81-8.52-8.52-8.52h-9.01c-4.87,0-8.82-3.95-8.82-8.82v-9.01c0-4.7,3.81-8.52,8.52-8.52h0c8.11,0,14.73-6.4,15.08-14.43Z"/>
</svg>