<?xml version="1.0" encoding="UTF-8"?>
<svg id="_Слой_1" data-name="Слой 1" xmlns="http://www.w3.org/2000/svg" viewBox="0 0 398.51 507.12">
  <defs>
    <style>
      .cls-1 {
        fill: #f16fde;
      }

      .cls-1, .cls-2, .cls-3, .cls-4, .cls-5, .cls-6 {
        stroke: #1d1d1b;
      }

      .cls-1, .cls-2, .cls-3, .cls-4, .cls-6 {
        stroke-miterlimit: 10;
        stroke-width: 10px;
      }

      .cls-2 {
        fill: #ffc2fc;
      }

      .cls-3 {
        fill: #fff1c5;
      }

      .cls-4 {
        fill: #ffef8f;
      }

      .cls-5 {
        stroke-linecap: round;
        stroke-linejoin: round;
        stroke-width: 14px;
      }

      .cls-5, .cls-7 {
        fill: #1d1d1b;
      }

      .cls-6 {
        fill: #b595fe;
      }
    </style>
  </defs>
  <path class="cls-3" d="m379.02,194.74c0,24.31-19.61,44.02-43.8,44.02h0c-13.65,0-24.72,11.07-24.72,24.72v20.08c0,17.7-14.35,32.06-32.06,32.06H101.29c-17.29,0-31.3-14.01-31.3-31.3V105.39c0-17.41,14.11-31.52,31.52-31.52h20.1c13.72,0,24.85-11.12,24.85-24.85h0c0-24.31,19.61-44.02,43.8-44.02s43.8,19.71,43.8,44.02h0c0,13.72,11.12,24.85,24.85,24.85h22.66c15.99,0,28.95,12.96,28.95,28.95v23.18c0,13.65,11.07,24.72,24.72,24.72h0c24.19,0,43.8,19.71,43.8,44.02Z"/>
  <path class="cls-2" d="m231.28,218.36c8.61.37,15.75-6.64,15.75-15.26h0c0-4.6,3.73-8.33,8.33-8.33h9.78c4.54,0,8.23,3.68,8.23,8.23v66.14c0,4.69-3.81,8.5-8.5,8.5h-64.96c-5.19,0-9.41-4.21-9.41-9.41v-8.61c0-4.6-3.73-8.33-8.33-8.33h0c-8.62,0-15.63-7.14-15.26-15.75.34-8.03,6.96-14.43,15.07-14.43h0c4.7,0,8.52-3.81,8.52-8.52v-9.01c0-4.87,3.95-8.82,8.82-8.82h9.01c4.7,0,8.52,3.81,8.52,8.52h0c0,8.11,6.4,14.73,14.43,15.08Z"/>
  <path class="cls-4" d="m166.44,235.54c-.37,8.61,6.64,15.75,15.26,15.75h0c4.6,0,8.33,3.73,8.33,8.33v9.78c0,4.54-3.68,8.23-8.23,8.23h-66.14c-4.69,0-8.5-3.81-8.5-8.5v-64.96c0-5.19,4.21-9.41,9.41-9.41h8.61c4.6,0,8.33-3.73,8.33-8.33h0c0-8.62,7.14-15.63,15.75-15.26,8.03.34,14.43,6.96,14.43,15.07h0c0,4.7,3.81,8.52,8.52,8.52h9.01c4.87,0,8.82,3.95,8.82,8.82v9.01c0,4.7-3.81,8.52-8.52,8.52h0c-8.11,0-14.73,6.4-15.08,14.43Z"/>
  <path class="cls-6" d="m149.03,171.42c-8.61-.37-15.75,6.64-15.75,15.26h0c0,4.6-3.73,8.33-8.33,8.33h-9.78c-4.54,0-8.23-3.68-8.23-8.23v-66.14c0-4.69,3.81-8.5,8.5-8.5h64.96c5.19,0,9.41,4.21,9.41,9.41v8.61c0,4.6,3.73,8.33,8.33,8.33h0c8.62,0,15.63,7.14,15.26,15.75-.34,8.03-6.96,14.43-15.07,14.43h0c-4.7,0-8.52,3.81-8.52,8.52v9.01c0,4.87-3.95,8.82-8.82,8.82h-9.01c-4.7,0-8.52-3.81-8.52-8.52h0c0-8.11-6.4-14.73-14.43-15.08Z"/>
  <path class="cls-1" d="m213.86,154.24c.37-8.61-6.64-15.75-15.26-15.75h0c-4.6,0-8.33-3.73-8.33-8.33v-9.78c0-4.54,3.68-8.23,8.23-8.23h66.14c4.69,0,8.5,3.81,8.5,8.5v64.96c0,5.19-4.21,9.41-9.41,9.41h-8.61c-4.6,0-8.33,3.73-8.33,8.33h0c0,8.62-7.14,15.63-15.75,15.26-8.03-.34-14.43-6.96-14.43-15.07h0c0-4.7-3.81-8.52-8.52-8.52h-9.01c-4.87,0-8.82-3.95-8.82-8.82v-9.01c0-4.7,3.81-8.52,8.52-8.52h0c8.11,0,14.73-6.4,15.08-14.43Z"/>
  <g>
    <path class="cls-7" d="m398.51,418.91v75.92c0,6.39-4.86,11.65-11.09,12.28h-2.53c-6.22-.64-11.08-5.89-11.08-12.28v-56.14h-.06v-16.93c0-9.24-7.5-16.73-16.74-16.73s-16.73,7.49-16.73,16.73c0,.1,0,.2,0,.29v72.78c0,6.78-5.5,12.28-12.28,12.28s-12.29-5.5-12.29-12.28v-75.92c.04-22.82,18.56-41.31,41.39-41.31s41.36,18.49,41.4,41.31Z"/>
    <path class="cls-7" d="m159.09,377.6c-22.83,0-41.35,18.49-41.39,41.31v75.92c0,6.78,5.5,12.28,12.29,12.28s12.28-5.5,12.28-12.28v-18.32h.02c0-9.24,7.5-16.74,16.74-16.74s16.74,7.5,16.74,16.74h.03v18.32c0,6.39,4.86,11.65,11.08,12.28h2.53c6.23-.64,11.09-5.89,11.09-12.28v-75.92c-.04-22.82-18.56-41.31-41.4-41.31Zm16.64,55.29c-.49.15-1.01.23-1.54.23-.82,0-1.56.34-2.1.87-.54.54-.87,1.29-.87,2.1v2.41c0,2.13-1.73,3.86-3.86,3.86h-21.3c-2.07,0-3.77-1.68-3.77-3.77v-21.51c0-1.46.82-2.72,2.03-3.35.52-.28,1.13-.44,1.77-.44h2.42c1.65,0,2.98-1.33,2.98-2.98,0-1.47.59-2.79,1.54-3.74.29-.29.61-.55.97-.76,0-.01.01-.01.02,0,.8-.5,1.73-.78,2.73-.78.31,0,.61.03.92.08,2.47.43,4.35,2.6,4.35,5.21,0,.82.34,1.57.87,2.11.54.54,1.29.87,2.12.87h2.72c1.92,0,3.48,1.56,3.48,3.48v2.79c0,1.64,1.33,2.98,2.98,2.98.54,0,1.05.08,1.54.23.84.26,1.58.72,2.18,1.32.95.96,1.54,2.28,1.54,3.74,0,2.38-1.57,4.39-3.72,5.06Z"/>
    <path class="cls-7" d="m196.03,442.36c-.42.04-.84.06-1.26.06s-.85-.02-1.26-.06h2.53Z"/>
    <path class="cls-5" d="m293.34,462.58c0,10.72-3.25,19.65-9.75,26.79-6.5,7.15-15.01,10.72-25.53,10.72s-18.58-3.52-25.38-10.57c-5.58-5.78-8.87-12.59-9.87-20.44-.36-2.81,1.81-5.31,4.65-5.31h.77c2.34,0,4.33,1.73,4.64,4.05.75,5.57,3.09,10.52,7.03,14.85,4.86,5.36,10.87,8.04,18.01,8.04s13.35-2.7,18.01-8.11c4.66-5.41,7-11.83,7-19.28,0-9.3-3.6-16.22-10.8-20.78-2.64-1.67-2.97-5.47-.57-7.48,4.8-4.02,7.2-9.78,7.2-17.29,0-6.85-1.99-12.7-5.95-17.57-3.97-4.86-9.28-7.29-15.93-7.29s-11.91,2.43-15.78,7.29c-3.06,3.85-4.92,8.32-5.55,13.42-.3,2.36-2.27,4.15-4.65,4.15h0c-2.8,0-5.01-2.44-4.66-5.22.89-7.08,3.63-13.21,8.24-18.38,5.71-6.4,13.17-9.6,22.4-9.6s17.34,3.13,23.15,9.38c5.81,6.25,8.71,14.29,8.71,24.11,0,6.02-1.71,11.43-5.12,16.25-1.39,1.96-.99,4.66.84,6.21,5.93,5.05,8.89,12.4,8.89,22.05Z"/>
    <path class="cls-7" d="m107.59,390c0,6.85-5.55,12.4-12.4,12.4-1.3,0-2.54-.2-3.72-.57.09.19.17.38.25.57,2.22,5.06,3.45,10.64,3.46,16.51v75.92c0,6.39-4.86,11.65-11.09,12.28h-2.53c-6.22-.64-11.08-5.89-11.08-12.28v-56.14h-.06v-16.93c0-9.24-7.5-16.73-16.74-16.73s-16.73,7.49-16.73,16.73c0,.1,0,.2,0,.29v72.78c0,6.78-5.5,12.28-12.28,12.28s-12.29-5.5-12.29-12.28v-75.92c.01-5.88,1.24-11.46,3.46-16.51.08-.19.16-.38.25-.57-1.17.37-2.42.57-3.72.57-6.85,0-12.4-5.55-12.4-12.4s5.55-12.4,12.4-12.4h82.79c6.85,0,12.4,5.55,12.4,12.4Z"/>
    <path class="cls-7" d="m15.89,402.4c1.29,0,2.54-.2,3.72-.57-.09.19-.17.38-.25.57h-3.46Z"/>
    <path class="cls-7" d="m98.68,402.4h-3.46c-.08-.19-.16-.38-.25-.57,1.17.37,2.42.57,3.72.57Z"/>
  </g>
</svg>