<?xml version="1.0" encoding="UTF-8"?>
<svg id="_Слой_1" data-name="Слой 1" xmlns="http://www.w3.org/2000/svg" viewBox="0 0 1083.41 364.77">
  <defs>
    <style>
      .cls-1 {
        stroke: #1d1d1b;
        stroke-linecap: round;
        stroke-linejoin: round;
        stroke-width: 37px;
      }

      .cls-1, .cls-2 {
        fill: #1d1d1b;
      }
    </style>
  </defs>
  <path class="cls-2" d="m1044.1,133.6v198.91c0,16.75-12.72,30.51-29.05,32.18h-6.63c-16.31-1.67-29.03-15.43-29.03-32.18v-147.08h-.16v-44.35c0-24.21-19.64-43.83-43.85-43.83s-43.83,19.62-43.83,43.83c0,.26,0,.51.02.75v190.67c0,17.77-14.4,32.18-32.18,32.18s-32.19-14.4-32.19-32.18v-198.91c.11-59.79,48.63-108.24,108.44-108.24s108.35,48.45,108.46,108.24Z"/>
  <path class="cls-2" d="m416.8,25.36c-59.81,0-108.33,48.45-108.44,108.24v198.91c0,17.77,14.4,32.18,32.19,32.18s32.18-14.4,32.18-32.18v-47.99h.05c0-24.21,19.64-43.85,43.85-43.85s43.85,19.64,43.85,43.85h.07v47.99c0,16.75,12.72,30.51,29.03,32.18h6.63c16.33-1.67,29.05-15.43,29.05-32.18v-198.91c-.11-59.79-48.63-108.24-108.46-108.24Zm43.6,144.85c-1.28.38-2.64.6-4.04.6-2.14,0-4.1.88-5.51,2.29-1.41,1.41-2.29,3.37-2.29,5.51v6.31c0,5.58-4.52,10.1-10.1,10.1h-55.8c-5.44,0-9.87-4.41-9.87-9.87v-56.35c0-3.83,2.16-7.14,5.31-8.79,1.37-.73,2.96-1.15,4.63-1.15h6.33c4.32,0,7.82-3.5,7.82-7.82,0-3.84,1.56-7.3,4.04-9.81.77-.77,1.61-1.45,2.54-2,.02-.04.04-.04.05-.02,2.09-1.32,4.54-2.05,7.16-2.05.82,0,1.61.07,2.4.22,6.48,1.12,11.4,6.81,11.4,13.65,0,2.16.88,4.12,2.29,5.53,1.43,1.41,3.39,2.29,5.55,2.29h7.14c5.03,0,9.11,4.08,9.11,9.11v7.3c0,4.3,3.5,7.8,7.8,7.8,1.41,0,2.76.22,4.04.6,2.2.68,4.14,1.89,5.71,3.46,2.49,2.51,4.04,5.97,4.04,9.81,0,6.24-4.12,11.51-9.76,13.25Z"/>
  <path class="cls-2" d="m513.6,195.03c-1.1.11-2.2.16-3.31.16s-2.21-.05-3.31-.16h6.63Z"/>
  <path class="cls-1" d="m768.55,247.99c0,28.08-8.52,51.48-25.55,70.2-17.03,18.72-39.33,28.08-66.89,28.08s-48.69-9.23-66.49-27.69c-14.61-15.14-23.23-32.99-25.85-53.56-.94-7.37,4.75-13.91,12.18-13.91h2.02c6.14,0,11.33,4.53,12.15,10.62,1.97,14.59,8.1,27.56,18.41,38.92,12.74,14.04,28.47,21.06,47.19,21.06s34.97-7.08,47.19-21.25c12.22-14.17,18.33-31,18.33-50.5,0-24.36-9.43-42.51-28.29-54.45-6.92-4.38-7.78-14.33-1.5-19.59,12.58-10.53,18.87-25.63,18.87-45.3,0-17.94-5.2-33.28-15.6-46.02-10.4-12.74-24.31-19.11-41.73-19.11s-31.2,6.37-41.34,19.11c-8.03,10.09-12.88,21.81-14.55,35.16-.77,6.18-5.96,10.87-12.19,10.87h0c-7.33,0-13.12-6.39-12.21-13.67,2.32-18.55,9.52-34.6,21.6-48.15,14.95-16.77,34.52-25.16,58.7-25.16s45.43,8.19,60.65,24.57c15.21,16.38,22.81,37.44,22.81,63.18,0,15.77-4.47,29.96-13.4,42.58-3.63,5.13-2.59,12.2,2.2,16.28,15.53,13.23,23.3,32.48,23.3,57.76Z"/>
  <path class="cls-2" d="m281.88,57.85c0,17.94-14.55,32.49-32.49,32.49-3.4,0-6.66-.51-9.74-1.48.24.49.46.99.66,1.48,5.82,13.25,9.04,27.87,9.08,43.27v198.91c0,16.75-12.72,30.51-29.05,32.18h-6.63c-16.31-1.67-29.03-15.43-29.03-32.18v-147.08h-.16v-44.35c0-24.21-19.64-43.83-43.85-43.83s-43.83,19.62-43.83,43.83c0,.26,0,.51.02.75v190.67c0,17.77-14.4,32.18-32.18,32.18s-32.19-14.4-32.19-32.18v-198.91c.04-15.39,3.26-30.02,9.08-43.27.2-.49.42-.99.66-1.48-3.07.97-6.35,1.48-9.74,1.48C14.53,90.34,0,75.79,0,57.85S14.53,25.36,32.49,25.36h216.9c17.94,0,32.49,14.55,32.49,32.49Z"/>
  <path class="cls-2" d="m41.64,90.34c3.39,0,6.66-.51,9.74-1.48-.24.49-.46.99-.66,1.48h-9.08Z"/>
  <path class="cls-2" d="m258.54,90.34h-9.08c-.2-.49-.42-.99-.66-1.48,3.07.97,6.33,1.48,9.74,1.48Z"/>
</svg>