<?xml version="1.0" standalone="no"?>
<!DOCTYPE svg PUBLIC "-//W3C//DTD SVG 20010904//EN"
 "http://www.w3.org/TR/2001/REC-SVG-20010904/DTD/svg10.dtd">
<svg version="1.0" xmlns="http://www.w3.org/2000/svg"
 width="66.000000pt" height="66.000000pt" viewBox="0 0 66.000000 66.000000"
 preserveAspectRatio="xMidYMid meet">
<metadata>
Created by potrace 1.16, written by Peter Selinger 2001-2019
</metadata>
<g transform="translate(0.000000,66.000000) scale(0.100000,-0.100000)"
fill="#000000" stroke="none">
<path d="M0 330 l0 -330 70 0 70 0 0 55 c0 30 2 55 4 55 2 0 23 -7 47 -16 61
-22 211 -22 263 -1 21 10 40 17 42 17 2 0 4 -25 4 -55 l0 -55 80 0 80 0 0 330
0 330 -330 0 -330 0 0 -330z m262 25 c-11 -58 71 -90 104 -40 9 14 14 34 11
45 -5 18 0 20 59 20 l64 0 0 -60 c0 -56 2 -60 23 -60 41 0 67 -27 67 -69 0
-49 -27 -76 -69 -68 -17 4 -50 -1 -76 -10 -54 -18 -216 -14 -272 7 l-33 12 0
124 0 124 64 0 c62 0 63 0 58 -25z"/>
<path d="M280 200 c0 -5 5 -10 10 -10 6 0 10 5 10 10 0 6 -4 10 -10 10 -5 0
-10 -4 -10 -10z"/>
<path d="M330 200 c0 -5 5 -10 10 -10 6 0 10 5 10 10 0 6 -4 10 -10 10 -5 0
-10 -4 -10 -10z"/>
</g>
</svg>
