<?xml version="1.0" standalone="no"?>
<!DOCTYPE svg PUBLIC "-//W3C//DTD SVG 20010904//EN"
 "http://www.w3.org/TR/2001/REC-SVG-20010904/DTD/svg10.dtd">
<svg version="1.0" xmlns="http://www.w3.org/2000/svg"
 width="657.000000pt" height="658.000000pt" viewBox="0 0 657.000000 658.000000"
 preserveAspectRatio="xMidYMid meet">

<g transform="translate(0.000000,658.000000) scale(0.100000,-0.100000)"
fill="#000000" stroke="none">
<path d="M3105 6574 c-326 -24 -592 -76 -868 -168 -736 -246 -1381 -767 -1778
-1438 -490 -825 -594 -1832 -284 -2738 371 -1082 1276 -1894 2390 -2144 219
-50 376 -67 637 -73 338 -8 575 16 866 88 745 183 1400 621 1865 1248 429 578
656 1308 634 2036 -30 984 -474 1868 -1248 2485 -465 372 -1038 609 -1649 685
-122 15 -465 27 -565 19z m1630 -1929 c128 -34 239 -127 298 -252 l32 -68 3
-1014 c3 -1098 5 -1045 -49 -1152 -30 -59 -114 -143 -177 -177 -121 -65 -49
-62 -1553 -62 -888 0 -1385 4 -1420 10 -187 36 -337 188 -368 377 -9 49 -11
342 -9 1028 3 953 3 960 25 1016 57 150 169 254 314 293 84 23 2817 23 2904 1z"/>
<path d="M1892 4440 c5 -15 1208 -887 1258 -912 37 -19 62 -23 135 -23 78 0
96 3 135 25 41 24 1196 874 1230 906 12 12 -190 14 -1374 14 -885 0 -1386 -3
-1384 -10z"/>
<path d="M4204 3843 c-346 -256 -654 -479 -684 -495 -146 -74 -316 -77 -465
-7 -25 12 -335 232 -688 489 -538 391 -644 464 -652 451 -6 -10 -10 -358 -10
-991 l0 -975 30 -53 c33 -61 90 -106 156 -122 31 -7 455 -10 1419 -8 l1375 3
44 23 c51 28 85 62 115 117 l21 40 0 960 c0 528 -4 977 -8 998 -4 20 -12 37
-16 37 -4 0 -291 -210 -637 -467z"/>
</g>
</svg>
