<?xml version="1.0" standalone="no"?>
<!DOCTYPE svg PUBLIC "-//W3C//DTD SVG 20010904//EN"
 "http://www.w3.org/TR/2001/REC-SVG-20010904/DTD/svg10.dtd">
<svg version="1.0" xmlns="http://www.w3.org/2000/svg"
 width="657.000000pt" height="658.000000pt" viewBox="0 0 657.000000 658.000000"
 preserveAspectRatio="xMidYMid meet">

<g transform="translate(0.000000,658.000000) scale(0.100000,-0.100000)"
fill="#000000" stroke="none">
<path d="M3105 6574 c-326 -24 -592 -76 -868 -168 -736 -246 -1381 -767 -1778
-1438 -490 -825 -594 -1832 -284 -2738 371 -1082 1276 -1894 2390 -2144 219
-50 376 -67 637 -73 338 -8 575 16 866 88 745 183 1400 621 1865 1248 429 578
656 1308 634 2036 -30 984 -474 1868 -1248 2485 -465 372 -1038 609 -1649 685
-122 15 -465 27 -565 19z m-1135 -2260 c48 -22 95 -70 112 -113 5 -14 21 -102
34 -196 72 -496 213 -843 437 -1073 63 -64 175 -152 195 -152 8 0 12 203 14
693 3 653 4 694 22 727 26 49 64 88 111 113 38 21 53 22 275 22 270 0 305 -7
363 -76 55 -63 57 -82 57 -473 0 -301 2 -357 14 -362 23 -9 164 70 253 141
158 126 318 337 437 573 91 181 115 194 376 200 274 6 348 -15 405 -112 41
-71 43 -125 6 -236 -91 -271 -280 -561 -528 -807 -62 -62 -113 -114 -113 -117
0 -2 37 -30 83 -62 218 -153 468 -475 669 -862 48 -93 53 -109 52 -165 0 -92
-39 -158 -119 -200 -38 -21 -52 -22 -335 -22 -283 0 -297 1 -335 22 -56 30
-76 55 -130 162 -140 282 -318 459 -565 562 -39 17 -90 31 -113 32 l-42 2 -5
-295 c-4 -208 -9 -304 -18 -324 -24 -55 -73 -105 -130 -133 -52 -26 -66 -28
-158 -26 -123 2 -254 16 -394 44 -911 182 -1476 877 -1624 1999 -15 115 -24
320 -14 363 10 51 63 119 112 144 53 28 93 32 326 30 205 -2 229 -4 270 -23z"/>
<path d="M1472 4118 c-12 -12 -11 -23 9 -243 56 -617 302 -1166 666 -1487 281
-248 619 -381 1063 -418 116 -10 134 -10 156 4 l24 16 0 279 c0 295 6 342 49
397 63 81 140 102 258 74 328 -78 631 -337 809 -692 l44 -88 240 0 c156 0 241
4 245 11 16 25 -236 443 -362 599 -83 103 -214 227 -306 288 -100 68 -132 119
-132 212 0 86 20 118 145 237 165 157 306 341 409 534 60 113 113 252 105 274
-5 13 -31 15 -188 13 l-181 -3 -57 -108 c-194 -368 -451 -642 -714 -764 -40
-18 -94 -36 -119 -39 -90 -13 -183 36 -228 119 -21 41 -22 54 -27 417 l-5 375
-189 3 c-130 2 -193 -1 -202 -9 -12 -10 -14 -127 -14 -698 0 -642 -2 -689 -19
-726 -56 -125 -207 -162 -336 -83 -367 224 -624 726 -710 1382 -8 65 -18 122
-21 127 -8 14 -398 11 -412 -3z"/>
</g>
</svg>
