<?xml version="1.0" standalone="no"?>
<!DOCTYPE svg PUBLIC "-//W3C//DTD SVG 20010904//EN"
 "http://www.w3.org/TR/2001/REC-SVG-20010904/DTD/svg10.dtd">
<svg version="1.0" xmlns="http://www.w3.org/2000/svg"
 width="657.000000pt" height="658.000000pt" viewBox="0 0 657.000000 658.000000"
 preserveAspectRatio="xMidYMid meet">

<g transform="translate(0.000000,658.000000) scale(0.100000,-0.100000)"
fill="#000000" stroke="none">
<path d="M3105 6574 c-326 -24 -592 -76 -868 -168 -736 -246 -1381 -767 -1778
-1438 -490 -825 -594 -1832 -284 -2738 371 -1082 1276 -1894 2390 -2144 219
-50 376 -67 637 -73 338 -8 575 16 866 88 745 183 1400 621 1865 1248 429 578
656 1308 634 2036 -30 984 -474 1868 -1248 2485 -465 372 -1038 609 -1649 685
-122 15 -465 27 -565 19z m1541 -1669 c35 -23 64 -74 64 -114 0 -55 -600
-3054 -616 -3078 -24 -37 -62 -56 -111 -55 -102 1 -227 88 -907 631 -385 308
-421 339 -442 385 -30 64 -31 135 -4 195 14 29 80 105 197 225 413 421 429
439 388 413 -22 -13 -227 -144 -455 -291 -228 -147 -430 -276 -450 -285 -56
-29 -137 -44 -202 -38 -39 3 -208 56 -496 153 -396 134 -440 151 -473 183 -47
47 -57 95 -30 155 10 24 30 51 43 60 19 12 3187 1401 3348 1468 51 21 108 18
146 -7z"/>
<path d="M3070 4060 c-1725 -755 -1651 -722 -1647 -727 2 -2 156 -55 341 -118
219 -75 352 -115 379 -115 55 0 24 -19 952 580 429 276 796 511 815 521 52 29
87 24 126 -15 44 -44 46 -90 7 -136 -15 -18 -296 -310 -625 -649 -329 -339
-598 -621 -598 -628 0 -9 569 -470 870 -705 99 -77 232 -169 237 -165 2 2 124
615 273 1363 148 747 272 1369 275 1382 3 12 2 22 -2 22 -5 -1 -636 -275
-1403 -610z"/>
</g>
</svg>
